<?xml version="1.0" encoding="utf-8"?>

<!-- Generator: Adobe Illustrator 18.0.0, SVG Export Plug-In . SVG Version: 6.00 Build 0)  -->

<!DOCTYPE svg PUBLIC "-//W3C//DTD SVG 1.1//EN" "http://www.w3.org/Graphics/SVG/1.1/DTD/svg11.dtd">

<svg version="1.1" id="Capa_1" xmlns="http://www.w3.org/2000/svg" xmlns:xlink="http://www.w3.org/1999/xlink" x="0px" y="0px"

	 viewBox="627.7 0 37.1 37.1" enable-background="new 627.7 0 37.1 37.1" xml:space="preserve">

<g>

	<g>

		<g>

			<path fill="#111" d="M642.1,4c-0.3,0-0.6,0.2-0.6,0.6c0,0.3,0.3,0.6,0.6,0.6c0.3,0,0.6-0.2,0.6-0.6C642.7,4.3,642.4,4,642.1,4

				L642.1,4z"/>

			<path fill="#000" d="M642.7,31.9c0,0.6,0.5,1.1,1.1,1.1s1.1-0.5,1.1-1.1c0-0.6-0.5-1.1-1.1-1.1

				C643.2,30.8,642.7,31.3,642.7,31.9z"/>

			<path fill="#000" d="M635.4,14.6c0.3,0,0.6-0.2,0.6-0.6V4.6c0-0.8,0.9-1.7,1.7-1.7h12.3c0.8,0,1.7,0.9,1.7,1.7

				c0,0.3,0.2,0.6,0.6,0.6s0.6-0.2,0.6-0.6c0-1.4-1.4-2.8-2.8-2.8h-12.3c-1.4,0-2.8,1.4-2.8,2.8v9.5

				C634.9,14.4,635.1,14.6,635.4,14.6z"/>

			<path fill="#111" d="M644.3,4c-0.3,0-0.6,0.2-0.6,0.6c0,0.3,0.2,0.6,0.6,0.6h2.2c0.3,0,0.6-0.2,0.6-0.6c0-0.3-0.2-0.6-0.6-0.6

				H644.3z"/>

			<path fill="#000" d="M652.1,6.3h-14.5c-0.3,0-0.6,0.2-0.6,0.6c0,0.3,0.2,0.6,0.6,0.6h13.9v25.1c0,0.8-0.9,1.7-1.7,1.7h-12.3

				c-0.8,0-1.7-0.9-1.7-1.7v-2.8h13.9c0.3,0,0.6-0.2,0.6-0.6c0-0.3-0.2-0.6-0.6-0.6h-14.5c-0.3,0-0.6,0.2-0.6,0.6v3.3

				c0,1.4,1.4,2.8,2.8,2.8h12.3c1.4,0,2.8-1.4,2.8-2.8V6.8C652.7,6.5,652.4,6.3,652.1,6.3z"/>

		</g>

	</g>

</g>

<g>

	<g>

		<g>

			<path fill="#000" d="M646.8,15.7h-1.3v0.9h0.9v2.7c0,2-1.6,3.5-3.5,3.5c-2,0-3.5-1.6-3.5-3.5v-2.7h0.9v-0.9h-1.3

				c-0.2,0-0.4,0.2-0.4,0.4v3.1c0,2.4,2,4.4,4.4,4.4c2.4,0,4.4-2,4.4-4.4v-3.1C647.2,15.9,647,15.7,646.8,15.7z"/>

		</g>

	</g>

	<g>

		<g>

			<rect x="635.7" y="25.4" fill="#111" width="2.7" height="0.9"/>

		</g>

	</g>

	<g>

		<g>

			<path fill="#111" d="M642.8,10.8c-1.7,0-3.1,1.4-3.1,3.1v5.3c0,1.7,1.4,3.1,3.1,3.1c1.7,0,3.1-1.4,3.1-3.1v-5.3

				C645.9,12.2,644.5,10.8,642.8,10.8z M645,19.2c0,1.2-1,2.2-2.2,2.2c-1.2,0-2.2-1-2.2-2.2v-5.3c0-1.2,1-2.2,2.2-2.2

				c1.2,0,2.2,1,2.2,2.2L645,19.2L645,19.2z"/>

		</g>

	</g>

	<g>

		<g>

			<path fill="#000" d="M644.6,25.4H641c-0.7,0-1.3,0.6-1.3,1.3v0.9c0,0.2,0.2,0.4,0.4,0.4h5.3c0.2,0,0.4-0.2,0.4-0.4v-0.9

				C645.9,26,645.3,25.4,644.6,25.4z M645,27.2h-4.4v-0.4c0-0.2,0.2-0.4,0.4-0.4h3.5c0.2,0,0.4,0.2,0.4,0.4V27.2z"/>

		</g>

	</g>

	<g>

		<g>

			<rect x="640.2" y="16.1" fill="#111" width="5.3" height="0.9"/>

		</g>

	</g>

	<g>

		<g>

			<rect x="642.4" y="23.2" fill="#000" width="0.9" height="2.7"/>

		</g>

	</g>

	<g>

		<g>

			<path fill="#000" d="M643.3,25h-0.9c-0.2,0-0.4,0.2-0.4,0.4v0.4h1.8v-0.4C643.7,25.2,643.5,25,643.3,25z"/>

		</g>

	</g>

	<g>

		<g>

			<rect x="636.6" y="15.2" fill="#111" width="0.9" height="5.3"/>

		</g>

	</g>

	<g>

		<g>

			<rect x="634.8" y="17.9" fill="#111" width="0.9" height="2.7"/>

		</g>

	</g>

	<g>

		<g>

			<rect x="633.1" y="16.6" fill="#111" width="0.9" height="4"/>

		</g>

	</g>

	<g>

		<g>

			<rect x="649.9" y="17.9" fill="#111" width="0.9" height="2.7"/>

		</g>

	</g>

	<g>

		<g>

			<rect x="648.1" y="16.6" fill="#111" width="0.9" height="4"/>

		</g>

	</g>

	<g>

		<g>

			<rect x="634.8" y="16.1" fill="#000" width="0.9" height="0.9"/>

		</g>

	</g>

	<g>

		<g>

			<rect x="649.9" y="16.1" fill="#000" width="0.9" height="0.9"/>

		</g>

	</g>

</g>

</svg>

